<?xml version="1.0" standalone="no"?>
<!DOCTYPE svg PUBLIC "-//W3C//DTD SVG 20010904//EN"
 "http://www.w3.org/TR/2001/REC-SVG-20010904/DTD/svg10.dtd">
<svg version="1.0" xmlns="http://www.w3.org/2000/svg"
 width="200.000000pt" height="200.000000pt" viewBox="0 0 200.000000 200.000000"
 preserveAspectRatio="xMidYMid meet">
<metadata>
Created by potrace 1.11, written by Peter Selinger 2001-2013
</metadata>
<g transform="translate(0.000000,200.000000) scale(0.100000,-0.100000)"
fill="#000000" stroke="none">
<path d="M923 1649 c-12 -7 -29 -27 -38 -46 -31 -65 14 -133 88 -133 79 0 119
101 63 158 -26 26 -81 36 -113 21z m92 -68 c13 -43 -25 -78 -66 -58 -17 9 -24
21 -24 42 0 54 73 67 90 16z"/>
<path d="M1184 1523 c-53 -10 -84 -84 -57 -136 26 -52 109 -65 150 -24 45 44
27 128 -31 152 -20 8 -37 14 -38 14 -2 -1 -13 -4 -24 -6z m60 -59 c9 -8 16
-23 16 -31 0 -21 -29 -53 -48 -53 -22 0 -52 30 -52 51 0 23 26 49 50 49 10 0
26 -7 34 -16z"/>
<path d="M694 1503 c-52 -26 -67 -73 -43 -127 14 -31 63 -56 98 -50 37 6 81
58 81 94 0 38 -46 90 -82 94 -15 2 -40 -3 -54 -11z m68 -45 c26 -22 29 -47 8
-68 -27 -27 -56 -25 -76 5 -15 23 -15 27 0 50 18 27 43 32 68 13z"/>
<path d="M906 1407 c-10 -7 -17 -22 -14 -33 4 -24 41 -30 58 -9 11 14 10 19
-6 36 -17 16 -22 17 -38 6z"/>
<path d="M991 1401 c-13 -24 9 -57 33 -48 23 9 31 34 16 52 -17 20 -37 19 -49
-4z"/>
<path d="M1046 1325 c-12 -12 -13 -21 -6 -36 13 -23 33 -25 51 -3 9 11 10 20
3 32 -15 23 -29 25 -48 7z"/>
<path d="M854 1316 c-10 -26 4 -48 28 -44 17 2 23 10 23 28 0 18 -6 26 -23 28
-13 2 -25 -3 -28 -12z"/>
<path d="M1004 1246 c-20 -15 -14 -43 12 -53 20 -8 47 19 39 39 -9 23 -30 29
-51 14z"/>
<path d="M1175 1248 c-61 -33 -73 -102 -26 -149 22 -21 39 -29 66 -29 51 0 95
44 95 95 0 66 -79 114 -135 83z m77 -55 c33 -39 -10 -90 -59 -72 -26 9 -32 56
-11 77 17 17 53 15 70 -5z"/>
<path d="M687 1239 c-27 -16 -48 -65 -41 -96 26 -109 170 -103 187 7 12 69
-82 126 -146 89z m85 -46 c35 -31 12 -83 -37 -83 -40 0 -59 55 -29 84 20 21
43 20 66 -1z"/>
<path d="M907 1244 c-11 -12 -8 -41 6 -53 19 -15 50 9 45 35 -3 19 -38 31 -51
18z"/>
<path d="M927 1099 c-25 -15 -46 -68 -40 -101 10 -53 76 -88 129 -68 28 11 63
64 59 88 -2 10 -4 23 -4 30 -1 7 -12 24 -26 37 -26 27 -84 34 -118 14z m85
-46 c22 -20 23 -46 2 -67 -20 -20 -48 -20 -68 0 -30 29 -9 84 31 84 9 0 25 -7
35 -17z"/>
<path d="M659 803 c-3 -110 0 -143 12 -143 5 0 9 8 8 18 -3 33 1 38 30 37 19
0 37 -11 56 -33 33 -40 46 -35 16 6 -20 29 -20 29 -1 47 25 23 25 46 2 76 -15
17 -30 23 -70 24 l-52 2 -1 -34z m105 1 c33 -33 6 -74 -49 -74 -30 0 -33 3
-37 34 -2 19 -2 39 0 45 6 17 68 13 86 -5z"/>
<path d="M1299 838 c-6 -15 -4 -60 3 -64 4 -3 8 11 8 30 0 29 -6 47 -11 34z"/>
<path d="M1003 788 c-18 -5 -33 -13 -33 -18 0 -6 10 -6 26 0 29 11 68 -4 61
-23 -4 -12 -8 -14 -52 -16 -17 -1 -29 -9 -34 -23 -13 -35 5 -49 60 -47 l49 2
0 44 c0 75 -21 96 -77 81z m57 -83 c0 -9 -12 -21 -26 -27 -22 -11 -28 -10 -40
7 -11 15 -11 20 -1 27 22 14 67 9 67 -7z"/>
<path d="M820 784 c0 -3 11 -30 25 -60 14 -30 25 -61 25 -68 0 -20 -25 -37
-44 -30 -9 3 -16 1 -16 -5 0 -6 6 -11 14 -11 22 0 27 -48 5 -55 -12 -4 -19
-16 -19 -31 0 -14 4 -22 10 -19 13 8 18 -7 24 -73 6 -70 26 -92 83 -92 40 0
44 2 41 23 -2 14 -11 23 -26 25 -13 2 -25 9 -28 16 -10 26 -9 96 1 97 5 1 17
2 25 3 9 0 16 13 18 30 2 17 0 26 -6 22 -17 -11 -40 4 -47 31 -4 17 -11 24
-23 21 -13 -4 -7 14 25 81 45 90 49 101 34 101 -5 0 -19 -25 -32 -57 l-23 -56
-24 56 c-14 32 -28 57 -33 57 -5 0 -9 -3 -9 -6z"/>
<path d="M1128 766 c-5 -36 4 -106 13 -106 6 0 9 6 8 13 -10 78 15 117 62 94
20 -11 24 -19 23 -60 -1 -46 15 -69 17 -24 5 92 -5 108 -72 106 -40 -2 -48 -5
-51 -23z"/>
<path d="M1352 778 c-24 -24 -6 -54 36 -61 33 -5 46 -21 28 -36 -12 -10 -23
-10 -47 -2 -23 8 -30 8 -27 -1 6 -17 50 -27 76 -17 50 19 36 62 -23 73 -21 4
-35 13 -35 21 0 15 14 19 58 17 12 -1 20 3 17 8 -9 14 -69 12 -83 -2z"/>
<path d="M1562 651 c-8 -4 -12 -19 -10 -32 4 -30 46 -39 65 -14 25 35 -18 70
-55 46z"/>
<path d="M1076 639 c-33 -9 -55 -35 -56 -67 0 -13 -4 -21 -8 -18 -4 2 -13 1
-20 -3 -16 -10 -3 -54 14 -47 11 4 14 -12 14 -79 l0 -85 30 0 c33 0 31 -7 34
110 1 51 3 55 26 55 19 0 26 6 28 26 3 23 0 26 -22 24 -14 -2 -29 2 -32 7 -8
13 25 40 39 31 10 -6 27 14 27 33 0 16 -39 22 -74 13z"/>
<path d="M1430 489 l0 -150 33 3 32 3 0 148 1 147 -33 0 -33 0 0 -151z"/>
<path d="M100 483 l0 -143 34 0 c28 0 33 4 33 23 1 55 0 54 63 59 48 3 66 10
87 30 48 48 32 134 -29 159 -16 7 -65 13 -109 14 l-79 1 0 -143z m163 73 c21
-16 22 -49 2 -66 -8 -7 -33 -15 -55 -17 -42 -5 -42 -5 -42 47 0 48 1 50 40 50
20 0 45 -7 55 -14z"/>
<path d="M420 538 c-41 -28 -56 -75 -40 -123 15 -46 42 -67 96 -73 100 -11
164 72 123 161 -26 57 -119 75 -179 35z m110 -48 c11 -11 20 -29 20 -40 0 -25
-34 -60 -59 -60 -28 0 -51 27 -51 60 0 55 52 78 90 40z"/>
<path d="M653 450 l-1 -110 34 0 34 0 0 68 c0 73 10 92 47 92 19 0 23 5 23 30
0 33 -16 38 -53 19 -16 -9 -22 -9 -25 0 -2 6 -16 11 -31 11 l-27 0 -1 -110z"/>
<path d="M1214 551 c-66 -29 -84 -118 -36 -172 24 -27 37 -33 85 -37 54 -4 58
-3 92 31 46 46 49 101 7 148 -23 26 -37 32 -78 35 -27 2 -59 0 -70 -5z m91
-55 c24 -17 23 -75 -1 -93 -41 -30 -88 -4 -86 48 1 52 46 75 87 45z"/>
<path d="M1557 553 c-2 -5 -4 -53 -3 -108 l1 -100 32 -3 31 -3 0 110 0 111
-29 0 c-15 0 -30 -3 -32 -7z"/>
<path d="M1724 551 c-12 -5 -31 -22 -44 -38 -17 -22 -21 -37 -17 -72 7 -63 41
-93 111 -99 53 -4 57 -3 91 31 46 46 49 101 7 148 -23 26 -37 32 -78 35 -27 2
-59 0 -70 -5z m95 -60 c34 -34 8 -101 -39 -101 -48 0 -71 68 -34 104 21 22 50
20 73 -3z"/>
</g>
</svg>
